<svg id="Layer_1" data-name="Layer 1" xmlns="http://www.w3.org/2000/svg" viewBox="0 0 500.5 46.1"><defs><style>.cls-1{fill:#fff;}</style></defs><title>marinatowers</title><path class="cls-1" d="M0,1.1H7L24.4,35.4c2.4-4.4,4.7-8.7,7-12.9,1-1.8,1.9-3.7,3-5.6l3-5.7c1-1.9,1.9-3.7,2.8-5.4s1.7-3.3,2.4-4.7h6.2v44H42.7V9.1L24,45.1H22.6L3.3,7.5V45.1H0Z"/><path class="cls-1" d="M103.5,5.1h13.3a21.26,21.26,0,0,1,6,.8,10.94,10.94,0,0,1,4.3,2.2,8.32,8.32,0,0,1,2.6,3.3,9.9,9.9,0,0,1,.9,4.2,8.12,8.12,0,0,1-.7,3.5,11.73,11.73,0,0,1-1.9,3,11.08,11.08,0,0,1-3,2.2,15.72,15.72,0,0,1-4,1.4l14.6,19.4h-6.8L114.9,26.3h-5.8V45.1h-5.5V5.1ZM109,24.3h4.5a15.1,15.1,0,0,0,4.4-.6,11.41,11.41,0,0,0,3.5-1.7,6.67,6.67,0,0,0,2.3-2.7,6.71,6.71,0,0,0,.8-3.5,7.25,7.25,0,0,0-.7-3.3,7,7,0,0,0-1.9-2.6A9.25,9.25,0,0,0,119,8.2a10.64,10.64,0,0,0-3.7-.6h-6.5V24.3Z"/><rect class="cls-1" x="144.3" y="5.1" width="5.5" height="40"/><polygon class="cls-1" points="160.7 5.1 164 5.1 191 35.2 191 5.1 193.9 5.1 193.9 46 192.4 46 163.7 13 163.7 45.1 160.7 45.1 160.7 5.1"/><polygon class="cls-1" points="223.2 4.2 222 4.2 202.9 45.1 206.2 45.1 212.4 31.8 213.6 29.2 221.2 13 228.9 29.2 230.1 31.8 236.2 45.1 242 45.1 223.2 4.2"/><polygon class="cls-1" points="76.6 4.2 75.5 4.2 56.4 45.1 59.6 45.1 65.9 31.8 67.1 29.2 74.7 13 82.4 29.2 83.6 31.8 89.7 45.1 95.5 45.1 76.6 4.2"/><polygon class="cls-1" points="279.3 1.1 279.3 4 263.3 4 263.3 45.1 257.3 45.1 257.3 4 241.3 4 241.3 1.1 279.3 1.1"/><path class="cls-1" d="M306.9,46.1a21.86,21.86,0,0,1-15.2-6.2,22.22,22.22,0,0,1-4.6-6.7,20.75,20.75,0,0,1-1.7-8.2,19.92,19.92,0,0,1,1.7-8.1,20.15,20.15,0,0,1,4.6-6.6,21,21,0,0,1,6.8-4.4,22.85,22.85,0,0,1,16.8,0,21,21,0,0,1,6.8,4.4,23.69,23.69,0,0,1,4.6,6.6,19.92,19.92,0,0,1,1.7,8.1,20.39,20.39,0,0,1-1.7,8.2,19.56,19.56,0,0,1-4.6,6.7,21.86,21.86,0,0,1-15.2,6.2m0-2a14.68,14.68,0,0,0,6.4-1.4,13.61,13.61,0,0,0,4.6-4,18.06,18.06,0,0,0,2.8-6.1,30.55,30.55,0,0,0,1-7.7,25.9,25.9,0,0,0-1-7.6,17,17,0,0,0-2.8-5.9,13.32,13.32,0,0,0-4.6-3.9,14.36,14.36,0,0,0-6.4-1.4,14.68,14.68,0,0,0-6.4,1.4,12.33,12.33,0,0,0-4.6,3.9,17.92,17.92,0,0,0-2.8,5.9,29.89,29.89,0,0,0-.9,7.6,31.28,31.28,0,0,0,.9,7.7,19,19,0,0,0,2.8,6.1,13.61,13.61,0,0,0,4.6,4,14.36,14.36,0,0,0,6.4,1.4"/><polygon class="cls-1" points="351.2 36 338.8 5.1 333.2 5.1 349.1 45.5 350.8 45.5 352.9 40.2 351.2 36"/><line class="cls-1" x1="351.2" y1="36" x2="352.9" y2="40.2"/><polygon class="cls-1" points="384.3 5.1 372.5 36.1 359.7 5.2 357.2 11.7 364.9 30.7 357.2 11.7 360.6 20 370.8 45.5 372.3 45.5 387.7 5.1 384.3 5.1"/><polygon class="cls-1" points="423.8 5.1 423.8 7.7 402.7 7.7 402.7 22 416.8 22 416.8 24.6 402.7 24.6 402.7 42.5 423.8 42.5 423.8 45.1 397.2 45.1 397.2 5.1 423.8 5.1"/><path class="cls-1" d="M433.2,5.1h13.3a21.26,21.26,0,0,1,6,.8,10.94,10.94,0,0,1,4.3,2.2,8.32,8.32,0,0,1,2.6,3.3,9.9,9.9,0,0,1,.9,4.2,8.12,8.12,0,0,1-.7,3.5,11.73,11.73,0,0,1-1.9,3,11.08,11.08,0,0,1-3,2.2,15.72,15.72,0,0,1-4,1.4l14.6,19.4h-6.8L444.6,26.3h-5.8V45.1h-5.5V5.1Zm5.5,19.2h4.5a15.1,15.1,0,0,0,4.4-.6,11.41,11.41,0,0,0,3.5-1.7,6.67,6.67,0,0,0,2.3-2.7,6.71,6.71,0,0,0,.8-3.5,7.25,7.25,0,0,0-.7-3.3,7,7,0,0,0-1.9-2.6,9.25,9.25,0,0,0-2.9-1.7,10.46,10.46,0,0,0-3.6-.6h-6.5V24.3Z"/><path class="cls-1" d="M486.1,43.4a13.93,13.93,0,0,0,3.5-.4,10.7,10.7,0,0,0,3.1-1.3,7.68,7.68,0,0,0,2.2-2.2,4.82,4.82,0,0,0,.8-3,5.58,5.58,0,0,0-1-3.3,11.25,11.25,0,0,0-2.6-2.8,19.63,19.63,0,0,0-3.7-2.4c-1.4-.8-2.8-1.5-4.3-2.3s-3.1-1.6-4.6-2.5a25,25,0,0,1-4.1-2.9,12.84,12.84,0,0,1-2.9-3.7,10.3,10.3,0,0,1-1.1-4.8,12.29,12.29,0,0,1,.9-4.7,10.79,10.79,0,0,1,2.6-3.7A12.18,12.18,0,0,1,479.2.9,17.65,17.65,0,0,1,485,0a17.45,17.45,0,0,1,5.3.7,11.21,11.21,0,0,1,4.1,2,13,13,0,0,1,3,3.2,25.62,25.62,0,0,1,2.1,4.4l-2.7,1.2A12.65,12.65,0,0,0,495.1,8a11.17,11.17,0,0,0-2.5-2.8,10.56,10.56,0,0,0-3.5-1.8,15.32,15.32,0,0,0-4.5-.6,11.42,11.42,0,0,0-3.9.6,9.24,9.24,0,0,0-2.8,1.5A6.84,6.84,0,0,0,476.2,7a5.33,5.33,0,0,0-.6,2.4,4.38,4.38,0,0,0,1,2.8,12.79,12.79,0,0,0,2.6,2.6,39.67,39.67,0,0,0,3.7,2.4c1.4.8,2.8,1.5,4.2,2.3,1.6.8,3.2,1.7,4.8,2.6a22.44,22.44,0,0,1,4.3,3.1,13.59,13.59,0,0,1,3.1,3.7,8.41,8.41,0,0,1,1.2,4.5,11.62,11.62,0,0,1-1,4.9,10.3,10.3,0,0,1-2.9,4,15.26,15.26,0,0,1-4.7,2.7,19.08,19.08,0,0,1-6.6,1,18.12,18.12,0,0,1-5.4-.7,13.62,13.62,0,0,1-4.2-2,14.35,14.35,0,0,1-3.2-3.3,20.11,20.11,0,0,1-2.2-4.4l2.8-1.2a11.79,11.79,0,0,0,1.9,3.7,14.85,14.85,0,0,0,2.8,2.8,11.4,11.4,0,0,0,3.7,1.7,13.12,13.12,0,0,0,4.6.8"/></svg>