<svg id="Layer_1" data-name="Layer 1" xmlns="http://www.w3.org/2000/svg" viewBox="0 0 380.85 171.01"><defs><style>.cls-1{fill:#fff;}</style></defs><title>sb</title><path class="cls-1" d="M187.21,104.56a3.19,3.19,0,0,0,1.62-.64A99.36,99.36,0,0,0,202.69,90.8c6.31-7.25,13.67-18.26,13-29.49-.6-9.47-5.34-14.53-14.5-15.46a45.46,45.46,0,0,0-14.5,1.33,109.52,109.52,0,0,0-6.3,21.5,137.73,137.73,0,0,0-1.9,35.92l.39.06c1.16.08,2.33.14,3.51.14C184.05,104.8,185.69,104.71,187.21,104.56Z"/><path class="cls-1" d="M177.19,68.17a112.93,112.93,0,0,1,5.6-20,99,99,0,0,0-13.54,5.1C158.15,58.4,151.77,63.45,151.1,65c.38,1.41,4.66,1.38,8.13,1.35,5.44,0,11.61-.08,12.83,4.51.61,2.19,0,6.08-12,14.27-4.27,2.9-8.68,5.45-11.06,6.78a49.92,49.92,0,0,0,26.21,12.33A139.06,139.06,0,0,1,177.19,68.17Z"/><path class="cls-1" d="M232.48,54.75a50,50,0,0,0-20.72-40.51,73.72,73.72,0,0,0-20.23,23.1c-1.12,2-2.18,4-3.16,6.13a49.81,49.81,0,0,1,10.55-1c12.36.27,19.29,6.73,20,18.67.78,12.46-7.2,24.38-14,32.18a104.38,104.38,0,0,1-10.09,10A50.14,50.14,0,0,0,232.48,54.75Z"/><path class="cls-1" d="M168.9,71.76c-.58-2.16-5.61-2.12-9.65-2.09-5.27,0-11.25.08-11.46-4.67a1.93,1.93,0,0,1,0-.24c.11-1.07.84-2.88,5.81-6.42a87.87,87.87,0,0,1,12.54-7.2,100.59,100.59,0,0,1,18.2-6.75,91.09,91.09,0,0,1,4.35-8.62A77.34,77.34,0,0,1,208.88,12.3a50,50,0,0,0-62.36,77.26c2-1.07,6.92-3.87,11.7-7.13C169.38,74.85,169,72,168.9,71.76Z"/><path class="cls-1" d="M182.43,109.5a54.75,54.75,0,1,1,54.75-54.75A54.75,54.75,0,0,1,182.43,109.5Zm0-108.36a53.62,53.62,0,1,0,53.62,53.62h0A53.67,53.67,0,0,0,182.43,1.14Z"/><path class="cls-1" d="M379.23,149a5.49,5.49,0,0,1-7.76,0l0,0a5.51,5.51,0,1,1,7.79-7.8h0a5.5,5.5,0,0,1,0,7.78ZM372,141.75a4.79,4.79,0,0,0,0,6.73,4.72,4.72,0,0,0,6.68,0l0,0a4.75,4.75,0,1,0-6.71-6.73Zm3.25.31a4.49,4.49,0,0,1,1.65.22,1.51,1.51,0,0,1,.94,1.53,1.32,1.32,0,0,1-.59,1.19,2.21,2.21,0,0,1-.88.3,1.44,1.44,0,0,1,1,.59,1.65,1.65,0,0,1,.33.94v.89a.78.78,0,0,0,.06.31v.08h-1v-.8a1.49,1.49,0,0,0-.57-1.39,2.55,2.55,0,0,0-1.18-.19h-.84v2.38h-1.07v-6Zm1.15,1a2.79,2.79,0,0,0-1.29-.22h-.91V145h1a2.92,2.92,0,0,0,1-.14,1.09,1.09,0,0,0,.22-1.83Z"/><path class="cls-1" d="M115,169.75,101.88,155H86.75v14.75H83.56V136.68h24.37c2.48,0,6.19.37,8.48,3.84a9.71,9.71,0,0,1,1.46,5.23,8.73,8.73,0,0,1-3.38,7.12c-2.48,1.83-5.48,2-8.39,2.11l13.34,14.77ZM104.6,152.19c3.33,0,7.36,0,9.05-3.42a7.51,7.51,0,0,0,.75-3.19,6.36,6.36,0,0,0-2.53-5.11c-1.64-1.07-3.47-1.07-5.35-1.07H86.75v12.79Z"/><path class="cls-1" d="M123.73,169.75V136.68h31.71v2.72H127V151h26.29v2.81H127V167h29.81v2.75Z"/><path class="cls-1" d="M191.36,169.75l-4.26-8.58H165.77l-4.22,8.58h-3.32l16.31-33.07h3.56l16.68,33.07Zm-15-30.14-9.32,19h18.74Z"/><path class="cls-1" d="M196.14,169.75V136.68h3.3V167h24.09v2.75Z"/><path class="cls-1" d="M233.69,139.4v30.35h-3.14V139.4H215.69v-2.72h32.2v2.72Z"/><path class="cls-1" d="M266.59,135.65c2.81,0,11.9.37,16.92,8.29a17.55,17.55,0,0,1,2.67,9.19,17.1,17.1,0,0,1-3.8,10.73c-5.34,6.42-13.31,6.8-15.88,6.8s-12.52-.47-17.25-9a17.29,17.29,0,0,1-2.16-8.53C247.09,141.6,256.75,135.65,266.59,135.65Zm0,2.86a17.29,17.29,0,0,0-10.26,3,14.4,14.4,0,0,0-5.72,11.77,15.61,15.61,0,0,0,1.08,5.67c3.33,8.39,12.7,8.86,15,8.86,11.53,0,15.89-7.88,15.89-15.38s-5.73-13.92-16-13.92Z"/><path class="cls-1" d="M321.57,169.75,308.49,155H293.35v14.75h-3.18V136.68h24.37c2.48,0,6.18.37,8.48,3.84a9.68,9.68,0,0,1,1.42,5.23,8.71,8.71,0,0,1-3.37,7.12c-2.48,1.83-5.48,2-8.39,2.11L326,169.75Zm-10.36-17.56c3.33,0,7.36,0,9-3.42a7.51,7.51,0,0,0,.75-3.19,6.36,6.36,0,0,0-2.57-5.11c-1.65-1.07-3.47-1.07-5.35-1.07H293.35v12.79Z"/><path class="cls-1" d="M333.24,160.16c.75,2,2.72,7.55,14.44,7.55,6.6,0,13-2.54,13-7.6,0-4.59-5.11-5.25-11.11-6l-7.22-1a20.11,20.11,0,0,1-6-1.54,6.77,6.77,0,0,1-3.94-6.14c0-5.35,5.25-9.61,15.23-9.61,2.35,0,10.5.23,15.52,6.51l-3,1.6c-2.91-4.08-8-5.25-12.75-5.25-5.53,0-11.62,1.87-11.62,6.61a4,4,0,0,0,2.57,3.56c1.41.65,3,.89,6.14,1.31,7.22,1,11.81,1.5,14.72,2.76a7.54,7.54,0,0,1,4.92,7,9,9,0,0,1-1.55,4.93c-2.48,3.51-6.93,5.76-15.65,5.76-2.06,0-10-.37-14.3-4.92a17.16,17.16,0,0,1-2.81-4.22Z"/><path class="cls-1" d="M7.5,159.87c1.94,4.12,7,5.1,11.08,5.1,1.57,0,8.16-.19,8.16-4.31,0-2.69-3.16-3.16-7.19-3.76-6.07-.93-9.27-1.39-11.91-2.64a8.44,8.44,0,0,1-5.15-7.79c0-7.28,7.18-10.25,15.3-10.25,9.59,0,14.56,3.2,17.15,7.84l-7.74,2c-1.76-3.34-6.31-3.94-9.64-3.94-1.53,0-7.14.09-7.14,3.8,0,1.67,1.16,2.36,2.59,2.82,2.32.7,8.16,1.58,10.53,2,4.26.74,11,2,11,9.32,0,9-8.34,11-16.64,11-9.55,0-14.7-3.19-17.9-9.22Z"/><path class="cls-1" d="M62.44,137.24c2.5,0,6.72,0,9.18,2.69a7.84,7.84,0,0,1,1.85,5.33c0,4.64-3.15,6.22-5.42,7,2.41.55,7,2.08,7.09,8.25A10.07,10.07,0,0,1,73.71,166c-2.6,4-6.77,4-10,4H41.25V137.24Zm-.79,12.85c1.3,0,3.94-.28,3.94-3.62,0-3.57-2.78-3.57-3.89-3.57H49.36v7.19Zm.46,14.14c1.44,0,4.87-.1,4.87-4.45,0-4-3.15-4-4.36-4H49.32v8.44Z"/></svg>