<?xml version="1.0" encoding="utf-8"?>
<!-- Generator: Adobe Illustrator 22.1.0, SVG Export Plug-In . SVG Version: 6.00 Build 0)  -->
<svg version="1.1" id="Layer_1" xmlns="http://www.w3.org/2000/svg" xmlns:xlink="http://www.w3.org/1999/xlink" x="0px" y="0px"
	 viewBox="0 0 737.4 87.7" style="enable-background:new 0 0 737.4 87.7;" xml:space="preserve">
<style type="text/css">
	.st0{fill:#FFFFFF;}
</style>
<g>
	<path class="st0" d="M441.5,43.3h-1.1c-1.3,5.1-2.5,7.9-4.9,11c-3.6,4.6-7.3,6.2-13.8,6.2h-9.1V3.2h6.7V0.9h-17.9v62h40V43.3z"/>
	<path class="st0" d="M478.4,28.7h-6.2v-2.3h6.2v-3.1c0-6.9,1.1-11.3,3.6-15.1c3.3-4.8,8.8-7.9,14.3-7.9c4.6,0,8.2,3.1,8.2,6.9
		c0,3-2,5.1-4.9,5.1c-2.6,0-4.6-1.9-4.6-4.2c0-1,0.4-1.9,1.2-2.8c0.7-0.6,0.7-0.7,0.7-1.1c0-0.7-1-1.4-2.4-1.4c-1.4,0-3,0.8-3.8,2.1
		c-0.8,1.1-1.1,2.8-1.1,6.4v15.1h8.5v2.3h-8.5v31.9h8.5v2.3h-25.8v-2.3h6.2V28.7z"/>
	<path class="st0" d="M512.4,42.3v2c0,10.2,0,10.2,1,12.4c1.2,2.7,3.9,4.3,7.2,4.3c5,0,9.4-3.2,12.7-9.4l2.1,1
		c-4,7.5-9.3,11.2-16.4,11.2c-4,0-8.4-1.5-11.8-4c-4.9-3.7-7.5-8.9-7.5-15.3c0-10.9,8.1-19,19-19c9.9,0,16.8,7,16.8,16.9H512.4z
		 M524.2,40v-2.6c0-4.7-0.2-6.1-1-7.4c-0.8-1.4-2.5-2-4.9-2c-2.7,0-4.5,0.9-5.2,2.8c-0.6,1.2-0.7,2.6-0.7,6.7V40H524.2z"/>
	<path class="st0" d="M566.8,36.3h-2.3c-0.5-2.4-0.9-3.4-2.4-4.9c-2.1-2.1-5.3-3.4-8.2-3.4c-3.9,0-6.5,2-6.5,4.8
		c0,2.3,1.7,3.9,5.3,4.7c5,1.3,8.4,2.3,10.2,3.2c4.3,1.9,6.5,5.1,6.5,9.6c0,7.9-5.8,13.6-13.8,13.6c-3.4,0-6.5-0.8-9.1-2.6
		c-0.9-0.6-1.3-0.7-1.9-0.7c-0.9,0-1.4,0.8-1.4,2.4h-2.4V49.3h2.4c0.3,3,0.9,4.8,2.4,6.9c2.4,3.2,6.3,5.1,10.2,5.1
		c4.4,0,7.8-2.5,7.8-5.7c0-1.7-0.9-3.2-2.5-4.1c-1.4-0.9-1.9-1-6.5-2.2c-3.1-0.8-5.9-1.8-7.4-2.4c-3.5-1.7-5.9-5.5-5.9-9.6
		c0-6.6,5.4-11.9,12-11.9c2.5,0,4.4,0.5,7.6,1.9c1.2,0.5,1.7,0.7,2.2,0.7c0.9,0,1.2-0.6,1.4-2.5h2.3V36.3z"/>
	<path class="st0" d="M571.7,28.7v-1.5c6.2-2.9,11.6-9.1,14.8-16.8h2.5v16h7.7v2.3h-7.7v25.9c0,3.2,1,4.8,3,4.8c2.5,0,3.7-1.5,4.7-6
		l2.7,0.5c-1.5,6.7-5.6,9.9-12.3,9.9c-6.3,0-9.3-3-9.3-9.2V28.7H571.7z"/>
	<path class="st0" d="M606.1,28.7h-4.6v-2.3h21.4v2.3h-4.5l9.4,20.7l6.7-16.4c0.6-1.4,0.7-2,0.7-2.7c0-1.2-0.6-1.6-2.9-1.6h-2.9
		v-2.3h15.8v2.3h-2.2c-3.6,0-4.4,0.5-5.7,3.6l-17.8,43.5c-2.3,5.9-3.2,7.4-4.8,9.3c-1.7,2-3.6,2.9-5.9,2.9c-3.3,0-5.9-2.3-5.9-5.5
		c0-2.7,2.1-4.9,4.8-4.9c1.9,0,3.4,1,4.7,3.1c0.4,0.6,0.7,0.8,1.2,0.8c1,0,2.2-2,4.1-6.9l4.5-11.9L606.1,28.7z"/>
	<polygon class="st0" points="660.2,0.9 642.8,0.9 642.8,3.2 649,3.2 649,60.5 642.8,60.5 642.8,62.9 666.3,62.9 666.3,60.5 
		660.2,60.5 	"/>
	<path class="st0" d="M679.9,42.3v2c0,10.2,0,10.2,1,12.4c1.2,2.7,3.9,4.3,7.2,4.3c5,0,9.4-3.2,12.7-9.4l2.1,1
		c-4,7.5-9.3,11.2-16.4,11.2c-4,0-8.4-1.5-11.8-4c-4.9-3.7-7.5-8.9-7.5-15.3c0-10.9,8.1-19,19-19c9.9,0,16.8,7,16.8,16.9H679.9z
		 M691.7,40v-2.6c0-4.7-0.2-6.1-1-7.4c-0.8-1.4-2.5-2-4.9-2c-2.7,0-4.5,0.9-5.2,2.8c-0.6,1.2-0.7,2.6-0.7,6.7V40H691.7z"/>
	<path class="st0" d="M734.8,36.3h-2.3c-0.5-2.4-0.9-3.4-2.4-4.9c-2.1-2.1-5.3-3.4-8.2-3.4c-3.9,0-6.5,2-6.5,4.8
		c0,2.3,1.7,3.9,5.3,4.7c5,1.3,8.4,2.3,10.2,3.2c4.3,1.9,6.5,5.1,6.5,9.6c0,7.9-5.8,13.6-13.8,13.6c-3.4,0-6.5-0.8-9.1-2.6
		c-0.9-0.6-1.3-0.7-1.9-0.7c-0.9,0-1.4,0.8-1.4,2.4h-2.4V49.3h2.4c0.3,3,0.9,4.8,2.4,6.9c2.4,3.2,6.3,5.1,10.2,5.1
		c4.4,0,7.8-2.5,7.8-5.7c0-1.7-0.9-3.2-2.5-4.1c-1.4-0.9-1.9-1-6.5-2.2c-3.1-0.8-5.9-1.8-7.4-2.4c-3.5-1.7-5.9-5.5-5.9-9.6
		c0-6.6,5.4-11.9,12-11.9c2.5,0,4.4,0.5,7.6,1.9c1.2,0.5,1.7,0.7,2.2,0.7c0.9,0,1.2-0.6,1.4-2.5h2.3V36.3z"/>
	<g>
		<path class="st0" d="M462.9,26.3H452c-1.1,0-2.3,0-3.6,0h-2.9v2.3h6.2v31.9h-6.2v2.3H469v-2.3h-6.1V26.3z"/>
		<path class="st0" d="M457.3,17.2c3.3,0,6.1-2.8,6.1-6.2c0-3.3-2.8-6.1-6.1-6.1c-3.4,0-6.2,2.7-6.2,6.2
			C451,14.4,453.8,17.2,457.3,17.2z"/>
	</g>
	<g>
		<polygon class="st0" points="128.5,0.3 111.7,0.2 111.6,45.5 111.6,45.5 111.6,62.4 111.6,62.4 111.6,62.4 128.4,62.4 128.4,62.4 
			136.1,62.4 136.1,47.4 128.5,47.4 		"/>
		<polygon class="st0" points="156.9,0.3 140.1,0.2 140,47.3 140,47.3 140,62.4 140,62.4 140,62.4 156.9,62.4 156.9,62.4 
			164.5,62.4 164.5,47.4 156.9,47.4 		"/>
		<path class="st0" d="M69.3,0.3L45.9,62.4h17.4l4.3-13.1l18.6,0l4.3,13h17.4L84.6,0.3H69.3z M71.8,36.5l5-15.4h0.1l5,15.4
			L71.8,36.5z"/>
		<path class="st0" d="M191.8,0.3l-23.4,62.2h17.4l4.3-13.1l18.6,0l4.3,13h17.4L207.2,0.3H191.8z M194.4,36.5l5-15.4h0.1l5,15.4
			L194.4,36.5z"/>
		<path class="st0" d="M369.8,62.4h17.4L364,0.3h-15.3l-23.4,62.2h17.4l4.3-13.1l18.6,0L369.8,62.4z M351.2,36.5l5-15.4h0.1l5,15.4
			L351.2,36.5z"/>
		<path class="st0" d="M282.7,21.4C282.8,11,277.7,0.3,260,0.3l-24.9,0L235,62.4h16.8l0-20.8l1.8,0l11.9,20.8h18.8l-14-22.7
			C278.2,36.7,282.6,29.2,282.7,21.4z M260,28.1l-8.2,0l0-13.9l8.2,0c3.8,0,5.7,3.6,5.7,7C265.6,24.7,263.9,28.1,260,28.1z"/>
		<polygon class="st0" points="334.1,0.3 286.5,0.3 286.5,14.8 302,14.8 301.9,62.4 318.6,62.4 318.6,14.8 334.1,14.8 		"/>
		<polygon class="st0" points="43.5,0.3 30.6,36 30.5,36 17.8,0.3 0,0.3 23.2,62.4 37.9,62.4 61.3,0.3 		"/>
	</g>
</g>
</svg>
